Coordinates
version=1
nRows=17
nColumns=40
inDegrees=yes

Units are S.I. units (second, meters, Newtons, ...)
Angles are in degrees.

endheader
time	pelvis_tilt	pelvis_list	pelvis_rotation	pelvis_tx	pelvis_ty	pelvis_tz	hip_flexion_r	hip_adduction_r	hip_rotation_r	knee_angle_r	knee_angle_r_beta	ankle_angle_r	subtalar_angle_r	mtp_angle_r	hip_flexion_l	hip_adduction_l	hip_rotation_l	knee_angle_l	knee_angle_l_beta	ankle_angle_l	subtalar_angle_l	mtp_angle_l	lumbar_extension	lumbar_bending	lumbar_rotation	arm_flex_r	arm_add_r	arm_rot_r	elbow_flex_r	pro_sup_r	wrist_flex_r	wrist_dev_r	arm_flex_l	arm_add_l	arm_rot_l	elbow_flex_l	pro_sup_l	wrist_flex_l	wrist_dev_l
     10.72778571	     -6.17058194	     -3.38009326	     -5.04457295	      0.76884933	      0.92302054	      0.47082876	     26.99108837	     -0.30807736	    -12.98186085	     13.38743027	     13.38743027	      3.58215160	      6.35277045	      4.87664383	      6.85702687	     -4.70421563	     -9.30113609	     17.19354933	     17.19354933	     17.06126962	    -11.16983067	     -4.35190195	     -9.93598707	      6.11233017	      1.81315156	    -14.31039095	    -11.65848327	     -0.58796198	     27.32970817	     46.53635207	      0.00000000	      0.00000000	     16.31841746	    -16.14027484	     -6.80102451	     80.83224070	     47.41258331	      0.00000000	      0.00000000
     10.74057143	     -6.21944431	     -3.44117261	     -5.08905268	      0.77111910	      0.92183899	      0.47270298	     26.46084182	      0.01996642	    -13.76959518	     12.41477216	     12.41477216	      3.23466104	      7.08576668	      5.00327774	      6.11819181	     -4.82147778	     -9.33106427	     16.91634579	     16.91634579	     17.50711724	    -11.04354169	     -4.36798237	     -9.76652212	      6.32248306	      1.93137249	    -14.36310884	    -11.64634819	     -0.64451798	     27.29551393	     46.53756858	      0.00000000	      0.00000000	     16.11773785	    -15.86696939	     -6.65752319	     81.69216119	     47.42505018	      0.00000000	      0.00000000
     10.75335714	     -6.37494396	     -3.35438618	     -5.17408626	      0.77324766	      0.92041611	      0.47477927	     26.41324875	      0.15478080	    -14.03200886	     12.44350401	     12.44350401	      3.03169025	      6.98205441	      5.04341543	      5.66068263	     -4.81961352	     -9.35628974	     16.92525305	     16.92525305	     17.85994535	    -11.14525388	     -4.46635812	     -9.41998730	      6.30456830	      1.92602020	    -14.28592317	    -11.63349082	     -0.64908960	     27.32712072	     46.53704869	      0.00000000	      0.00000000	     16.10857043	    -15.78589337	     -6.61959541	     81.75471980	     47.42399394	      0.00000000	      0.00000000
     10.76614286	     -6.57268481	     -3.58217678	     -5.18081326	      0.77550767	      0.91924417	      0.47692864	     26.30595633	      0.54108086	    -14.42456328	     12.63987448	     12.63987448	      2.63616616	      6.85519832	      4.86609197	      5.08705024	     -5.14649419	     -9.23483781	     16.65189945	     16.65189945	     18.26734735	    -11.09942715	     -4.43324880	     -9.11889166	      6.67037496	      1.95142038	    -13.92013367	    -11.61490096	     -0.66674637	     27.44646934	     46.53580713	      0.00000000	      0.00000000	     15.79471358	    -15.27627059	     -6.37662626	     81.96704002	     47.41147220	      0.00000000	      0.00000000
     10.77892857	     -6.48073864	     -3.65252633	     -5.17851685	      0.77823039	      0.91843369	      0.47925687	     25.65359535	      0.85269372	    -14.25893013	     12.42784188	     12.42784188	     -0.05066289	      5.75921201	     -2.41551395	      4.29513147	     -5.33822882	     -9.38401443	     16.70736341	     16.70736341	     19.64839858	    -10.23470127	     -2.01346835	     -9.11109983	      6.79836233	      1.39427274	    -13.09703597	    -11.63338445	     -1.28070164	     27.21822217	     46.57060754	      0.00000000	      0.00000000	     14.43501221	    -15.33933813	     -6.78247381	     84.12864861	     47.52447803	      0.00000000	      0.00000000
     10.79171429	     -6.49787252	     -3.79561782	     -5.20244317	      0.78058418	      0.91776850	      0.48166476	     25.55774378	      1.08402551	    -14.09143295	     13.35999199	     13.35999199	     -0.15986822	      5.05707139	     -2.96560076	      3.67289245	     -5.60419800	     -9.30901765	     16.71200010	     16.71200010	     19.89866268	    -10.29342569	     -1.82629129	     -8.99973225	      7.03999685	      1.48981163	    -12.55337472	    -11.70450507	     -1.31971017	     27.33902011	     46.56996294	      0.00000000	      0.00000000	     14.17471428	    -14.94709214	     -6.63070978	     83.94208284	     47.51594643	      0.00000000	      0.00000000
     10.80450000	     -6.55632874	     -3.90144173	     -5.22346764	      0.78281329	      0.91724961	      0.48423682	     25.42578862	      1.40507441	    -13.23158699	     14.09250330	     14.09250330	     -0.90078014	      3.17377848	     -5.24188435	      3.32515764	     -5.87492795	     -9.16571935	     17.15291893	     17.15291893	     20.54353747	    -10.36221751	     -0.44643650	     -8.84149995	      7.22619976	      1.46444447	    -11.74975093	    -11.69622374	     -1.60737599	     27.41537955	     46.57615321	      0.00000000	      0.00000000	     13.76361707	    -14.55310498	     -6.60116851	     83.70114749	     47.53983643	      0.00000000	      0.00000000
     10.81728571	     -6.51936091	     -4.05545293	     -5.25087903	      0.78505351	      0.91730164	      0.48684007	     25.08421694	      1.65302068	    -13.08791904	     14.77627992	     14.77627992	     -0.70428380	      2.96881098	     -5.49917097	      2.85236608	     -6.21131202	     -9.13417324	     17.49964244	     17.49964244	     20.50231950	    -10.54050522	     -0.36438459	     -8.85754942	      7.41492371	      1.62190002	    -10.88064319	    -11.71561931	     -1.63118237	     27.72684330	     46.57173846	      0.00000000	      0.00000000	     13.29039373	    -14.04707162	     -6.33979644	     83.48217969	     47.51726559	      0.00000000	      0.00000000
     10.83007143	     -6.52073067	     -4.04306214	     -5.19640644	      0.78682184	      0.91716111	      0.48938467	     25.28156909	      1.70467705	    -12.32793355	     16.29684877	     16.29684877	     -0.30912939	      1.39983376	     -6.02332974	      2.93821441	     -6.43632595	     -8.84933072	     18.71204639	     18.71204639	     20.57145913	    -11.06674132	     -0.03049436	     -8.81901658	      7.45360730	      1.29448124	     -9.88268457	    -11.82948309	     -1.83255834	     28.16576256	     46.57144801	      0.00000000	      0.00000000	     12.85094538	    -13.96631144	     -6.31081445	     82.78836778	     47.50838094	      0.00000000	      0.00000000
     10.84285714	     -6.43869668	     -4.15122424	     -5.11998248	      0.78855219	      0.91763093	      0.49205181	     24.98452870	      1.94964466	    -11.75490299	     17.06097622	     17.06097622	      0.12593345	      0.39419368	     -6.19164865	      3.06899636	     -6.82062546	     -8.53875322	     20.15106826	     20.15106826	     20.42747939	    -11.69868438	      0.19857611	     -8.93467391	      7.56649159	      1.18002812	     -8.77827401	    -11.90970721	     -2.02672596	     28.65261586	     46.56980125	      0.00000000	      0.00000000	     12.39368284	    -13.65271727	     -6.23232269	     82.10938245	     47.49483572	      0.00000000	      0.00000000
     10.85564286	     -6.42119850	     -4.18355572	     -5.02483860	      0.79005657	      0.91828634	      0.49468519	     24.70818142	      2.14503782	    -11.13859171	     17.66582598	     17.66582598	      0.63255740	     -0.63419450	     -6.08806624	      3.56105914	     -7.17069033	     -8.16550657	     22.06352676	     22.06352676	     20.08485202	    -12.47486946	      0.32388919	     -8.96039328	      7.60456691	      0.99430936	     -7.59297119	    -11.97782886	     -2.33697689	     29.28500058	     46.56806638	      0.00000000	      0.00000000	     11.89244409	    -13.28428722	     -6.19832562	     81.10502191	     47.48032183	      0.00000000	      0.00000000
     10.86842857	     -6.31873901	     -4.23012163	     -4.87829878	      0.79136791	      0.91921598	      0.49732315	     24.29891965	      2.35524592	    -10.56525713	     18.17034965	     18.17034965	      1.39059040	     -1.54625546	     -5.38596998	      4.22611571	     -7.56321254	     -7.68788431	     24.39012342	     24.39012342	     19.47546956	    -13.40895582	      0.18101479	     -9.12550039	      7.63742102	      0.92274611	     -6.48191811	    -11.99223569	     -3.09156569	     30.24716797	     46.56859281	      0.00000000	      0.00000000	     11.65812914	    -12.76847644	     -6.29816034	     79.52567371	     47.47754505	      0.00000000	      0.00000000
     10.88121429	     -6.17980387	     -4.30845742	     -4.69154762	      0.79254429	      0.92026056	      0.49990984	     23.69397286	      2.51822011	    -10.54330629	     18.36668017	     18.36668017	      1.97270981	     -1.67553119	     -5.37869838	      5.15313965	     -8.04678081	     -7.22368804	     27.22170984	     27.22170984	     18.65032249	    -14.32219572	     -0.18972845	     -9.34228277	      7.66850372	      0.78233213	     -5.15525758	    -12.10014987	     -3.32205686	     30.96387742	     46.56075333	      0.00000000	      0.00000000	     11.22101440	    -12.51043715	     -6.06504151	     78.63121452	     47.44757620	      0.00000000	      0.00000000
     10.89400000	     -6.08748301	     -4.37092488	     -4.46727003	      0.79354055	      0.92127399	      0.50244620	     23.11692494	      2.67182247	    -10.54932335	     18.48040700	     18.48040700	      2.52432839	     -1.83311878	     -5.28643247	      6.38796626	     -8.53609159	     -6.63790230	     30.44097307	     30.44097307	     17.55995990	    -15.28789539	     -0.66279901	     -9.51094620	      7.64917146	      0.56557998	     -3.77147226	    -12.20812967	     -3.57999558	     31.83144114	     46.54866417	      0.00000000	      0.00000000	     10.76233729	    -12.25062883	     -5.88216577	     77.39746970	     47.41444161	      0.00000000	      0.00000000
     10.90678571	     -6.07360321	     -4.45316016	     -4.19501770	      0.79435055	      0.92206773	      0.50488129	     22.60130490	      2.82706639	    -10.68104897	     18.51776494	     18.51776494	      3.06424303	     -1.89632050	     -5.11183915	      7.96878538	     -9.05586438	     -5.91519563	     34.03462876	     34.03462876	     16.23136634	    -16.23895357	     -1.25211651	     -9.50044236	      7.69776436	      0.27828528	     -2.41744057	    -12.33757462	     -3.91152082	     32.90566719	     46.53081202	      0.00000000	      0.00000000	     10.32445434	    -11.97154346	     -5.74499532	     75.71819075	     47.37736279	      0.00000000	      0.00000000
     10.91957143	     -6.02907263	     -4.51806846	     -3.94979455	      0.79505266	      0.92285400	      0.50726008	     22.13280551	      2.91736386	    -10.96777926	     18.74686057	     18.74686057	      4.15820187	     -1.48367199	     -3.48821383	      9.56531637	     -9.57707369	     -5.29102662	     37.59975865	     37.59975865	     14.26955266	    -17.13829111	     -2.89370521	     -9.54328586	      7.77066010	      1.11700572	     -2.50410089	    -12.50030991	     -6.09282444	     36.38587187	     46.45187246	      0.00000000	      0.00000000	     11.26565472	    -11.14574882	     -4.86866780	     71.65881996	     47.28711647	      0.00000000	      0.00000000
     10.93235714	     -5.94172811	     -4.66801129	     -3.66678101	      0.79563799	      0.92350277	      0.50957023	     21.50499279	      3.09975813	    -11.36339235	     18.70118754	     18.70118754	      4.56370893	     -1.23452618	     -3.61546038	     11.32661812	    -10.15042536	     -4.48101179	     41.46115732	     41.46115732	     12.81285211	    -17.66389436	     -2.97546059	     -9.65687227	      7.84038338	      0.92376249	     -0.97421500	    -12.72500002	     -6.28993019	     37.22626784	     46.43495643	      0.00000000	      0.00000000	     10.71874025	    -10.93675461	     -4.67854392	     70.34942586	     47.25136601	      0.00000000	      0.00000000
